<svg width="148" height="19" viewBox="0 0 148 19" fill="none" xmlns="http://www.w3.org/2000/svg">
<path d="M12.13 4.536C11.73 4.088 11.114 3.68 10.282 3.312C9.45003 2.944 8.52203 2.76 7.49803 2.76C6.18603 2.76 5.21803 3.008 4.59403 3.504C3.97003 4 3.65803 4.68 3.65803 5.544C3.65803 6.152 3.81803 6.632 4.13803 6.984C4.45803 7.336 4.94603 7.624 5.60203 7.848C6.27403 8.072 7.12203 8.304 8.14603 8.544C9.33003 8.8 10.354 9.112 11.218 9.48C12.082 9.848 12.746 10.344 13.21 10.968C13.674 11.576 13.906 12.392 13.906 13.416C13.906 14.504 13.634 15.4 13.09 16.104C12.546 16.808 11.802 17.328 10.858 17.664C9.93003 18 8.88203 18.168 7.71403 18.168C5.05803 18.168 2.74603 17.368 0.778031 15.768L1.81003 13.944C2.16203 14.296 2.63403 14.648 3.22603 15C3.83403 15.352 4.52203 15.648 5.29003 15.888C6.07403 16.112 6.89803 16.224 7.76203 16.224C8.97803 16.224 9.92203 16.008 10.594 15.576C11.266 15.128 11.602 14.48 11.602 13.632C11.602 12.992 11.41 12.48 11.026 12.096C10.658 11.712 10.106 11.392 9.37003 11.136C8.63403 10.88 7.73803 10.624 6.68203 10.368C5.53003 10.08 4.56203 9.768 3.77803 9.432C2.99403 9.08 2.40203 8.624 2.00203 8.064C1.61803 7.504 1.42603 6.776 1.42603 5.88C1.42603 4.792 1.69003 3.872 2.21803 3.12C2.74603 2.368 3.47403 1.8 4.40203 1.416C5.33003 1.032 6.37803 0.839999 7.54603 0.839999C8.68203 0.839999 9.71403 1.016 10.642 1.368C11.586 1.72 12.418 2.192 13.138 2.784L12.13 4.536ZM23.779 18.12C22.419 18.12 21.275 17.888 20.347 17.424C19.419 16.944 18.675 16.304 18.115 15.504C17.555 14.688 17.147 13.768 16.891 12.744C16.635 11.72 16.507 10.664 16.507 9.576V0.959999H18.667V9.576C18.667 10.408 18.747 11.224 18.907 12.024C19.083 12.808 19.363 13.512 19.747 14.136C20.131 14.76 20.651 15.256 21.307 15.624C21.963 15.992 22.779 16.176 23.755 16.176C24.747 16.176 25.571 15.992 26.227 15.624C26.883 15.24 27.403 14.736 27.787 14.112C28.171 13.472 28.443 12.76 28.603 11.976C28.779 11.192 28.867 10.392 28.867 9.576V0.959999H31.027V9.576C31.027 10.728 30.891 11.824 30.619 12.864C30.363 13.888 29.947 14.792 29.371 15.576C28.795 16.36 28.043 16.984 27.115 17.448C26.203 17.896 25.091 18.12 23.779 18.12ZM34.8642 18V0.959999H41.9682C42.7202 0.959999 43.4082 1.12 44.0322 1.44C44.6562 1.744 45.2002 2.16 45.6642 2.688C46.1282 3.2 46.4882 3.784 46.7442 4.44C47.0002 5.08 47.1282 5.736 47.1282 6.408C47.1282 7.336 46.9202 8.224 46.5042 9.072C46.0882 9.904 45.5042 10.584 44.7522 11.112C44.0002 11.624 43.1202 11.88 42.1122 11.88H37.0242V18H34.8642ZM37.0242 9.96H41.9922C42.5842 9.96 43.0962 9.8 43.5282 9.48C43.9762 9.16 44.3202 8.728 44.5602 8.184C44.8162 7.64 44.9442 7.048 44.9442 6.408C44.9442 5.736 44.8002 5.136 44.5122 4.608C44.2242 4.064 43.8482 3.64 43.3842 3.336C42.9202 3.032 42.4082 2.88 41.8482 2.88H37.0242V9.96ZM61.3853 16.08V18H49.8173V0.959999H61.1693V2.88H51.9773V8.4H59.9693V10.2H51.9773V16.08H61.3853ZM64.3486 18V0.959999H71.6446C72.3966 0.959999 73.0846 1.12 73.7086 1.44C74.3326 1.744 74.8766 2.16 75.3406 2.688C75.8046 3.2 76.1646 3.784 76.4206 4.44C76.6766 5.08 76.8046 5.736 76.8046 6.408C76.8046 7.192 76.6526 7.936 76.3486 8.64C76.0606 9.344 75.6446 9.944 75.1006 10.44C74.5726 10.936 73.9486 11.28 73.2286 11.472L77.3566 18H74.9086L71.0206 11.88H66.5086V18H64.3486ZM66.5086 9.96H71.6686C72.2606 9.96 72.7726 9.8 73.2046 9.48C73.6526 9.144 73.9966 8.704 74.2366 8.16C74.4926 7.616 74.6206 7.032 74.6206 6.408C74.6206 5.768 74.4766 5.184 74.1886 4.656C73.9006 4.112 73.5246 3.68 73.0606 3.36C72.5966 3.04 72.0846 2.88 71.5246 2.88H66.5086V9.96ZM97.7538 2.88H91.8738V18H89.7138V2.88H83.8338V0.959999H97.7538V2.88ZM111.776 16.08V18H100.208V0.959999H111.56V2.88H102.368V8.4H110.36V10.2H102.368V16.08H111.776ZM119.923 0.959999H121.747L128.707 18H126.403L124.387 13.008H117.235L115.243 18H112.939L119.923 0.959999ZM123.907 11.328L120.835 3.456L117.667 11.328H123.907ZM145.717 18V4.992L140.101 15H138.781L133.141 4.992V18H130.981V0.959999H133.261L139.429 12.024L145.621 0.959999H147.877V18H145.717Z" fill="white"/>
</svg>
